<svg id="Layer_2" xmlns="http://www.w3.org/2000/svg" viewBox="0 0 89.49 95.85" width="90" height="96.39">
    <rect x="0.23" y="91" width="89.23" height="4.85" fill="currentColor">
    </rect>
    <g style="transform: translateY(0%); transform-origin: 44.865px 17.913px 0px;" transform-origin="44.86499831080437px 17.91295051574707px">
        <path d="M7.33,11.76v2.42a8,8,0,0,1,6.49-3,8.93,8.93,0,0,1,9.09,9.1V35.51H16.06V22.08a4.37,4.37,0,1,0-8.73,0V35.51H.48V11.76Z" transform="translate(-0.25 -0.33)" fill="currentColor">
        </path>
        <path d="M49.67,11.21a12.32,12.32,0,0,1,12.7,12.47,12.32,12.32,0,0,1-12.7,12.47A12.31,12.31,0,0,1,37,23.68,12.31,12.31,0,0,1,49.67,11.21Zm0,18.18a5.71,5.71,0,0,0,0-11.42,5.57,5.57,0,0,0-5.58,5.71A5.58,5.58,0,0,0,49.67,29.39Z" transform="translate(-0.25 -0.33)" fill="currentColor">
        </path>
        <path d="M76.36,11.16a11,11,0,0,1,6.58,2.2V.33h6.81V35.51H82.94V33.87a10.74,10.74,0,0,1-6.58,2.24c-6.39,0-11.24-5.39-11.24-12.47S70,11.16,76.36,11.16ZM72.25,23.59a5.32,5.32,0,1,0,10.6,0,5.31,5.31,0,1,0-10.6,0Z" transform="translate(-0.25 -0.33)" fill="currentColor">
        </path>
        <path d="M33.74,35.51H26.88V11.75h6.86Z" transform="translate(-0.25 -0.33)" fill="currentColor">
        </path>
        <rect x="26.63" width="6.86" height="6.86" fill="currentColor">
        </rect>
    </g>
    <g style="transform: translateY(0%); transform-origin: 44.38px 63.2904px 0px;" transform-origin="44.379997968673706px 63.2903995513916px">
        <path d="M1,47.53a.64.64,0,0,1,0,1.28.64.64,0,0,1,0-1.28ZM.47,49.35h1v4.84h-1Z" transform="translate(-0.25 -0.33)" fill="currentColor">
        </path>
        <path d="M3.56,49.35v.7a1.81,1.81,0,0,1,1.59-.83,1.86,1.86,0,0,1,1.93,1.9v3.07h-1V51.4a1.22,1.22,0,0,0-1.25-1.25,1.26,1.26,0,0,0-1.3,1.26v2.78h-1V49.35Z" transform="translate(-0.25 -0.33)" fill="currentColor">
        </path>
        <path d="M10.75,50.61c-.09-.31-.42-.54-.95-.54s-.8.19-.8.52.15.38.47.49l1.09.37c.83.31,1.19.74,1.19,1.4,0,1-.85,1.46-1.86,1.46S8.07,53.78,7.94,53l.91-.14c.09.37.45.64,1.06.64s.91-.22.91-.58-.19-.42-.59-.56L9.15,52c-.75-.26-1.08-.65-1.08-1.28,0-1,.81-1.45,1.81-1.45a1.62,1.62,0,0,1,1.79,1.23Z" transform="translate(-0.25 -0.33)" fill="currentColor">
        </path>
        <path d="M12.19,49.35h.73v-1h1v1h1.29v.84H13.89v2.39a.65.65,0,0,0,.66.68h.63v.93h-.71a1.49,1.49,0,0,1-1.55-1.48V50.19h-.73Z" transform="translate(-0.25 -0.33)" fill="currentColor">
        </path>
        <path d="M16.51,47.53a.64.64,0,1,1-.63.64A.63.63,0,0,1,16.51,47.53ZM16,49.35h1v4.84H16Z" transform="translate(-0.25 -0.33)" fill="currentColor">
        </path>
        <path d="M17.69,49.35h.73v-1h1v1h1.29v.84H19.39v2.39a.65.65,0,0,0,.65.68h.64v.93H20a1.49,1.49,0,0,1-1.55-1.48V50.19h-.73Z" transform="translate(-0.25 -0.33)" fill="currentColor">
        </path>
        <path d="M21.5,52.4v-3h1v2.78a1.23,1.23,0,0,0,1.24,1.26A1.26,1.26,0,0,0,25,52.12V49.35h1v4.84H25V53.5a1.83,1.83,0,0,1-1.59.81A1.87,1.87,0,0,1,21.5,52.4Z" transform="translate(-0.25 -0.33)" fill="currentColor">
        </path>
        <path d="M27.13,52.4v-3h1v2.78a1.23,1.23,0,0,0,1.25,1.26,1.26,1.26,0,0,0,1.31-1.27V49.35h1v4.84h-1V53.5a1.83,1.83,0,0,1-1.59.81A1.87,1.87,0,0,1,27.13,52.4Z" transform="translate(-0.25 -0.33)" fill="currentColor">
        </path>
        <path d="M32.32,49.35h.73v-1h1v1h1.29v.84H34v2.39a.65.65,0,0,0,.65.68h.64v.93H34.6a1.49,1.49,0,0,1-1.55-1.48V50.19h-.73Z" transform="translate(-0.25 -0.33)" fill="currentColor">
        </path>
        <path d="M39.16,49.35l1.5,3.6,1.49-3.6h1l-2,4.84h-.9l-2-4.84Z" transform="translate(-0.25 -0.33)" fill="currentColor">
        </path>
        <path d="M46,49.22a2.55,2.55,0,1,1-2.54,2.55A2.49,2.49,0,0,1,46,49.22Zm0,4.12a1.58,1.58,0,1,0-1.53-1.57A1.53,1.53,0,0,0,46,53.34Z" transform="translate(-0.25 -0.33)" fill="currentColor">
        </path>
        <path d="M51.82,49.22a2.55,2.55,0,1,1-2.55,2.55A2.49,2.49,0,0,1,51.82,49.22Zm0,4.12a1.58,1.58,0,1,0-1.54-1.57A1.53,1.53,0,0,0,51.82,53.34Z" transform="translate(-0.25 -0.33)" fill="currentColor">
        </path>
        <path d="M55.31,49.35h1v.7a1.82,1.82,0,0,1,1.59-.83H58V50.3a1.12,1.12,0,0,0-.42-.07,1.26,1.26,0,0,0-1.3,1.26v2.7h-1Z" transform="translate(-0.25 -0.33)" fill="currentColor">
        </path>
        <path d="M2.8,60.88A2.54,2.54,0,1,1,2.8,66a2.54,2.54,0,1,1,0-5.08ZM2.8,65a1.58,1.58,0,1,0-1.54-1.57A1.53,1.53,0,0,0,2.8,65Z" transform="translate(-0.25 -0.33)" fill="currentColor">
        </path>
        <path d="M8.62,60.88a2.54,2.54,0,1,1,0,5.08,2.54,2.54,0,0,1,0-5.08Zm0,4.11a1.58,1.58,0,1,0-1.54-1.57A1.54,1.54,0,0,0,8.62,65Z" transform="translate(-0.25 -0.33)" fill="currentColor">
        </path>
        <path d="M12.11,61h1v.7a1.84,1.84,0,0,1,1.6-.82h.13V62a1,1,0,0,0-.42-.08,1.26,1.26,0,0,0-1.31,1.26v2.7h-1Z" transform="translate(-0.25 -0.33)" fill="currentColor">
        </path>
        <path d="M15.55,58.85h1v7h-1Z" transform="translate(-0.25 -0.33)" fill="currentColor">
        </path>
        <path d="M20,60.88a2.54,2.54,0,1,1-2.55,2.54A2.49,2.49,0,0,1,20,60.88ZM20,65a1.58,1.58,0,1,0-1.54-1.57A1.53,1.53,0,0,0,20,65Z" transform="translate(-0.25 -0.33)" fill="currentColor">
        </path>
        <path d="M25.67,60.88a2.31,2.31,0,0,1,1.61.64V61h1v4.67a2.37,2.37,0,0,1-2.42,2.39,2.52,2.52,0,0,1-2.3-1.36l1-.29a1.45,1.45,0,0,0,1.28.68,1.43,1.43,0,0,0,1.49-1.42v-.35a2.31,2.31,0,0,1-1.61.64,2.55,2.55,0,0,1,0-5.08Zm-1.38,2.54a1.49,1.49,0,1,0,1.48-1.58A1.5,1.5,0,0,0,24.29,63.42Z" transform="translate(-0.25 -0.33)" fill="currentColor">
        </path>
        <path d="M31.93,62.26a.9.9,0,0,0-.95-.54c-.44,0-.8.19-.8.52s.15.38.47.49l1.09.37c.83.31,1.19.74,1.19,1.4,0,1-.85,1.46-1.86,1.46s-1.82-.53-1.95-1.35l.91-.14c.09.37.45.64,1,.64s.92-.22.92-.58-.19-.42-.59-.56l-1.08-.37c-.75-.26-1.08-.65-1.08-1.28,0-1,.81-1.44,1.81-1.44a1.62,1.62,0,0,1,1.79,1.23Z" transform="translate(-0.25 -0.33)" fill="currentColor">
        </path>
        <path d="M36.42,62.88v.74h-2.7v-.74Z" transform="translate(-0.25 -0.33)" fill="currentColor">
        </path>
        <path d="M37.63,67.11l-.32-.33s.5-.51.49-.82a.66.66,0,0,1-.54-.66.62.62,0,0,1,.65-.62c.42,0,.71.36.71.89A2,2,0,0,1,37.63,67.11Z" transform="translate(-0.25 -0.33)" fill="currentColor">
        </path>
        <path d="M43,58.85V61.7a2,2,0,0,1,3.59,1.08v3.06h-1V63.06a1.24,1.24,0,0,0-1.28-1.26A1.28,1.28,0,0,0,43,63.06v2.78H42v-7Z" transform="translate(-0.25 -0.33)" fill="currentColor">
        </path>
        <path d="M50.07,60.88a2.54,2.54,0,1,1-2.54,2.54A2.49,2.49,0,0,1,50.07,60.88Zm0,4.11a1.58,1.58,0,1,0-1.53-1.57A1.53,1.53,0,0,0,50.07,65Z" transform="translate(-0.25 -0.33)" fill="currentColor">
        </path>
        <path d="M53.57,58.85h1v7h-1Z" transform="translate(-0.25 -0.33)" fill="currentColor">
        </path>
        <path d="M58,60.88a2.54,2.54,0,1,1-2.54,2.54A2.48,2.48,0,0,1,58,60.88ZM58,65a1.58,1.58,0,1,0-1.53-1.57A1.53,1.53,0,0,0,58,65Z" transform="translate(-0.25 -0.33)" fill="currentColor">
        </path>
        <path d="M65.22,62.69a1.49,1.49,0,0,0-1.37-.85,1.58,1.58,0,0,0,0,3.15,1.48,1.48,0,0,0,1.37-.84l1,.28a2.54,2.54,0,1,1,0-2Z" transform="translate(-0.25 -0.33)" fill="currentColor">
        </path>
        <path d="M69.22,60.88a2.29,2.29,0,0,1,1.61.64V61h1v4.84h-1v-.52a2.29,2.29,0,0,1-1.61.64,2.55,2.55,0,0,1,0-5.08Zm-1.38,2.54a1.49,1.49,0,1,0,1.49-1.58A1.51,1.51,0,0,0,67.84,63.42Z" transform="translate(-0.25 -0.33)" fill="currentColor">
        </path>
        <path d="M73,64.05V61h1v2.78A1.23,1.23,0,0,0,75.17,65a1.26,1.26,0,0,0,1.3-1.27V61h1v4.84h-1v-.69a1.81,1.81,0,0,1-1.58.81A1.87,1.87,0,0,1,73,64.05Z" transform="translate(-0.25 -0.33)" fill="currentColor">
        </path>
        <path d="M81.12,62.26a.9.9,0,0,0-1-.54c-.44,0-.8.19-.8.52s.15.38.47.49l1.09.37c.82.31,1.19.74,1.19,1.4,0,1-.85,1.46-1.87,1.46s-1.81-.53-1.94-1.35l.91-.14c.08.37.45.64,1,.64s.92-.22.92-.58S81,64.11,80.6,64l-1.08-.37c-.76-.26-1.08-.65-1.08-1.28,0-1,.81-1.44,1.81-1.44A1.6,1.6,0,0,1,82,62.11Z" transform="translate(-0.25 -0.33)" fill="currentColor">
        </path>
        <path d="M82.56,61h.73V60h1v1h1.29v.84H84.26v2.39a.65.65,0,0,0,.65.68h.64v.93h-.71a1.49,1.49,0,0,1-1.55-1.48V61.84h-.73Z" transform="translate(-0.25 -0.33)" fill="currentColor">
        </path>
        <path d="M89,62.88v.74h-2.7v-.74Z" transform="translate(-0.25 -0.33)" fill="currentColor">
        </path>
        <path d="M1.25,75.43a1.59,1.59,0,0,0,1.6,1.28,1.63,1.63,0,0,0,1.29-.6l1,.29a2.56,2.56,0,0,1-2.24,1.22,2.52,2.52,0,0,1-2.6-2.55,2.48,2.48,0,0,1,2.53-2.54,2.48,2.48,0,0,1,2.51,2.54c0,.13,0,.24,0,.36Zm1.5-2a1.54,1.54,0,0,0-1.49,1.22h3A1.58,1.58,0,0,0,2.75,73.44Z" transform="translate(-0.25 -0.33)" fill="currentColor">
        </path>
        <path d="M7.12,72.65v.71a1.81,1.81,0,0,1,1.59-.83,1.86,1.86,0,0,1,1.93,1.9V77.5h-1V74.71a1.22,1.22,0,0,0-1.25-1.26,1.27,1.27,0,0,0-1.3,1.27V77.5h-1V72.65Z" transform="translate(-0.25 -0.33)" fill="currentColor">
        </path>
        <path d="M16.44,72.53a2.31,2.31,0,0,1,1.61.64v-.52h1v4.68a2.36,2.36,0,0,1-2.42,2.38,2.53,2.53,0,0,1-2.31-1.36l1-.29a1.46,1.46,0,0,0,1.29.68,1.42,1.42,0,0,0,1.49-1.41V77a2.28,2.28,0,0,1-1.61.65,2.55,2.55,0,0,1,0-5.09Zm-1.38,2.54a1.49,1.49,0,1,0,1.48-1.57A1.51,1.51,0,0,0,15.06,75.07Z" transform="translate(-0.25 -0.33)" fill="currentColor">
        </path>
        <path d="M21,75.43a1.65,1.65,0,0,0,2.88.68l.95.29A2.62,2.62,0,0,1,20,75.07a2.52,2.52,0,1,1,5,0c0,.13,0,.24,0,.36Zm1.5-2A1.53,1.53,0,0,0,21,74.66h3A1.56,1.56,0,0,0,22.46,73.44Z" transform="translate(-0.25 -0.33)" fill="currentColor">
        </path>
        <path d="M26.83,72.65v.71a1.81,1.81,0,0,1,1.59-.83,1.86,1.86,0,0,1,1.93,1.9V77.5h-1V74.71a1.22,1.22,0,0,0-1.25-1.26,1.26,1.26,0,0,0-1.3,1.27V77.5h-1V72.65Z" transform="translate(-0.25 -0.33)" fill="currentColor">
        </path>
        <path d="M33.82,72.53a2.55,2.55,0,1,1-2.54,2.54A2.49,2.49,0,0,1,33.82,72.53Zm0,4.12a1.58,1.58,0,1,0-1.53-1.58A1.53,1.53,0,0,0,33.82,76.65Z" transform="translate(-0.25 -0.33)" fill="currentColor">
        </path>
        <path d="M41,74.35a1.51,1.51,0,0,0-1.38-.85,1.58,1.58,0,0,0,0,3.15A1.51,1.51,0,0,0,41,75.8l1,.29a2.55,2.55,0,1,1,0-2Z" transform="translate(-0.25 -0.33)" fill="currentColor">
        </path>
        <path d="M43.34,70.84a.64.64,0,1,1-.64.64A.63.63,0,0,1,43.34,70.84Zm-.49,1.81h1V77.5h-1Z" transform="translate(-0.25 -0.33)" fill="currentColor">
        </path>
        <path d="M47.15,72.53a2.31,2.31,0,0,1,1.61.64V70.51h1v7h-1V77a2.28,2.28,0,0,1-1.61.65,2.55,2.55,0,0,1,0-5.09Zm-1.38,2.54a1.49,1.49,0,1,0,1.48-1.57A1.51,1.51,0,0,0,45.77,75.07Z" transform="translate(-0.25 -0.33)" fill="currentColor">
        </path>
        <path d="M51.67,75.43a1.59,1.59,0,0,0,1.6,1.28,1.63,1.63,0,0,0,1.29-.6l.95.29a2.56,2.56,0,0,1-2.24,1.22,2.52,2.52,0,0,1-2.6-2.55,2.52,2.52,0,1,1,5,0c0,.13,0,.24,0,.36Zm1.5-2a1.53,1.53,0,0,0-1.49,1.22h3A1.56,1.56,0,0,0,53.17,73.44Z" transform="translate(-0.25 -0.33)" fill="currentColor">
        </path>
        <path d="M59.09,73.92c-.09-.31-.42-.54-1-.54s-.8.19-.8.52.15.37.47.49l1.09.37c.83.31,1.19.73,1.19,1.39,0,1-.85,1.47-1.86,1.47s-1.82-.53-1.95-1.35l.91-.14c.09.37.45.64,1.06.64s.91-.22.91-.59-.19-.42-.59-.56l-1.08-.36c-.75-.26-1.08-.65-1.08-1.28,0-1,.81-1.45,1.81-1.45A1.62,1.62,0,0,1,60,73.76Z" transform="translate(-0.25 -0.33)" fill="currentColor">
        </path>
        <path d="M60.53,72.65h.74v-1h1v1h1.29v.85H62.23v2.38a.65.65,0,0,0,.66.69h.63v.93h-.71A1.49,1.49,0,0,1,61.27,76V73.5h-.74Z" transform="translate(-0.25 -0.33)" fill="currentColor">
        </path>
        <path d="M64.34,75.71V72.65h1v2.79a1.23,1.23,0,0,0,1.25,1.26,1.26,1.26,0,0,0,1.3-1.27V72.65h1V77.5h-1v-.69a1.83,1.83,0,0,1-1.58.81A1.87,1.87,0,0,1,64.34,75.71Z" transform="translate(-0.25 -0.33)" fill="currentColor">
        </path>
        <path d="M72.16,72.53a2.31,2.31,0,0,1,1.61.64V70.51h1v7h-1V77a2.28,2.28,0,0,1-1.61.65,2.55,2.55,0,0,1,0-5.09Zm-1.38,2.54a1.49,1.49,0,1,0,1.48-1.57A1.51,1.51,0,0,0,70.78,75.07Z" transform="translate(-0.25 -0.33)" fill="currentColor">
        </path>
        <path d="M76.38,70.84a.64.64,0,0,1,0,1.28.64.64,0,0,1,0-1.28Zm-.49,1.81h1V77.5h-1Z" transform="translate(-0.25 -0.33)" fill="currentColor">
        </path>
        <path d="M78.8,75.43a1.59,1.59,0,0,0,1.6,1.28,1.63,1.63,0,0,0,1.29-.6l1,.29a2.56,2.56,0,0,1-2.24,1.22,2.52,2.52,0,0,1-2.6-2.55,2.52,2.52,0,1,1,5,0c0,.13,0,.24,0,.36Zm1.5-2a1.54,1.54,0,0,0-1.49,1.22h3A1.58,1.58,0,0,0,80.3,73.44Z" transform="translate(-0.25 -0.33)" fill="currentColor">
        </path>
        <path d="M86.23,73.92a.9.9,0,0,0-1-.54c-.44,0-.8.19-.8.52s.14.37.46.49l1.09.37c.83.31,1.19.73,1.19,1.39,0,1-.84,1.47-1.86,1.47s-1.82-.53-2-1.35l.92-.14c.08.37.44.64,1,.64s.91-.22.91-.59-.18-.42-.58-.56l-1.09-.36c-.75-.26-1.08-.65-1.08-1.28,0-1,.81-1.45,1.81-1.45a1.61,1.61,0,0,1,1.79,1.23Z" transform="translate(-0.25 -0.33)" fill="currentColor">
        </path>
    </g>
</svg>